<svg xmlns="http://www.w3.org/2000/svg" width="512" height="512" viewBox="0 0 512 512" version="1.1">
	<path d="M 47.674 1.545 C 30.946 4.870, 14.231 17.730, 6.789 33 C -0.440 47.832, 0 33.306, -0 257.298 C -0 454.572, 0.040 458.838, 1.975 466.404 C 4.847 477.632, 9.310 485.365, 17.966 494.114 C 26.517 502.756, 34.027 507.066, 45.766 510.068 C 53.110 511.946, 58.955 512, 256.410 511.985 C 482.664 511.969, 465.441 512.514, 480.060 504.908 C 493.802 497.759, 504.589 484.922, 508.988 470.485 C 510.158 466.643, 511.540 462.118, 512.058 460.429 C 513.245 456.559, 513.344 53.788, 512.158 52.450 C 511.695 51.927, 510.761 48.905, 510.083 45.734 C 505.614 24.845, 486.270 6.075, 464.500 1.504 C 454.443 -0.607, 58.305 -0.568, 47.674 1.545 M 0.490 257 C 0.490 368.925, 0.607 414.712, 0.750 358.750 C 0.893 302.787, 0.893 211.212, 0.750 155.250 C 0.607 99.287, 0.490 145.075, 0.490 257 M 231.500 119 L 207.516 143 173.258 143 L 139 143 139 177.242 L 139 211.485 114.758 235.742 L 90.515 260 114.758 284.258 L 139 308.515 139 342.758 L 139 377 173.242 377 L 207.485 377 231.742 401.242 L 256 425.485 280.258 401.242 L 304.515 377 338.758 377 L 373 377 373 342.758 L 373 308.515 397.242 284.258 L 421.485 260 397.242 235.742 L 373 211.485 373 177.242 L 373 143 338.742 143 L 304.484 143 280.500 119 C 267.309 105.800, 256.284 95, 256 95 C 255.716 95, 244.691 105.800, 231.500 119 M 237.500 154 L 219.521 172 193.760 172 L 168 172 168 197.740 L 168 223.480 149.760 241.740 L 131.520 260 149.760 278.260 L 168 296.520 168 322.260 L 168 348 193.740 348 L 219.480 348 237.740 366.240 L 256 384.480 274.260 366.240 L 292.520 348 318.260 348 L 344 348 344 322.260 L 344 296.520 362.240 278.260 L 380.480 260 362.240 241.740 L 344 223.480 344 197.740 L 344 172 318.240 172 L 292.479 172 274.500 154 C 264.611 144.100, 256.286 136, 256 136 C 255.714 136, 247.389 144.100, 237.500 154 M 241.520 175.980 L 227.566 189.961 207.033 190.230 L 186.500 190.500 186.232 211 L 185.963 231.500 171.744 245.750 L 157.526 260 171.744 274.250 L 185.963 288.500 186.232 309 L 186.500 329.500 207 329.768 L 227.500 330.037 241.750 344.256 L 256 358.474 270.250 344.256 L 284.500 330.037 305 329.768 L 325.500 329.500 325.768 309 L 326.037 288.500 340.256 274.250 L 354.474 260 340.256 245.750 L 326.037 231.500 325.768 211 L 325.500 190.500 304.967 190.230 L 284.434 189.961 270.480 175.980 C 262.806 168.291, 256.290 162, 256 162 C 255.710 162, 249.194 168.291, 241.520 175.980" stroke="none" fill="black" fill-rule="evenodd"/>
</svg>